<svg data-v-fde0c5aa="" xmlns="http://www.w3.org/2000/svg" viewBox="0 0 300 300" class="font"><!----><defs data-v-fde0c5aa=""><!----></defs><rect data-v-fde0c5aa="" fill="transparent" x="0" y="0" width="300px" height="300px" class="logo-background-square"></rect><defs data-v-fde0c5aa=""><!----></defs><g data-v-fde0c5aa="" id="34cccd5e-364f-4c4b-ba7c-600f16147d27" fill="#000000" transform="matrix(13.793102788507692,0,0,13.793102788507692,27.448276100719482,6.620696776545103)"><path d="M4.09 11.96L3.35 11.96L3.35 14.64L3.35 14.64Q3.19 14.69 2.86 14.73L2.86 14.73L2.86 14.73Q2.53 14.77 2.21 14.77L2.21 14.77L2.21 14.77Q1.89 14.77 1.65 14.72L1.65 14.72L1.65 14.72Q1.40 14.67 1.24 14.55L1.24 14.55L1.24 14.55Q1.08 14.42 0.99 14.20L0.99 14.20L0.99 14.20Q0.91 13.97 0.91 13.61L0.91 13.61L0.91 7.01L0.91 7.01Q0.91 6.72 1.07 6.56L1.07 6.56L1.07 6.56Q1.23 6.40 1.51 6.30L1.51 6.30L1.51 6.30Q1.99 6.13 2.62 6.06L2.62 6.06L2.62 6.06Q3.25 5.98 3.96 5.98L3.96 5.98L3.96 5.98Q5.89 5.98 6.87 6.79L6.87 6.79L6.87 6.79Q7.85 7.60 7.85 8.99L7.85 8.99L7.85 8.99Q7.85 9.86 7.41 10.47L7.41 10.47L7.41 10.47Q6.96 11.09 6.34 11.42L6.34 11.42L6.34 11.42Q6.85 12.11 7.34 12.71L7.34 12.71L7.34 12.71Q7.83 13.31 8.11 13.80L8.11 13.80L8.11 13.80Q7.97 14.29 7.59 14.55L7.59 14.55L7.59 14.55Q7.22 14.81 6.76 14.81L6.76 14.81L6.76 14.81Q6.45 14.81 6.23 14.74L6.23 14.74L6.23 14.74Q6.01 14.67 5.84 14.55L5.84 14.55L5.84 14.55Q5.67 14.42 5.53 14.24L5.53 14.24L5.53 14.24Q5.39 14.06 5.26 13.85L5.26 13.85L4.09 11.96ZM3.33 10.09L4.23 10.09L4.23 10.09Q4.76 10.09 5.07 9.82L5.07 9.82L5.07 9.82Q5.38 9.55 5.38 9.02L5.38 9.02L5.38 9.02Q5.38 8.48 5.03 8.21L5.03 8.21L5.03 8.21Q4.69 7.94 3.95 7.94L3.95 7.94L3.95 7.94Q3.74 7.94 3.61 7.95L3.61 7.95L3.61 7.95Q3.49 7.97 3.33 7.99L3.33 7.99L3.33 10.09ZM13.87 13.85L11.90 11.55L11.90 14.64L11.90 14.64Q11.75 14.69 11.41 14.73L11.41 14.73L11.41 14.73Q11.07 14.77 10.75 14.77L10.75 14.77L10.75 14.77Q10.43 14.77 10.19 14.72L10.19 14.72L10.19 14.72Q9.94 14.67 9.77 14.55L9.77 14.55L9.77 14.55Q9.60 14.42 9.52 14.20L9.52 14.20L9.52 14.20Q9.44 13.97 9.44 13.61L9.44 13.61L9.44 6.22L9.44 6.22Q9.59 6.19 9.93 6.14L9.93 6.14L9.93 6.14Q10.26 6.09 10.57 6.09L10.57 6.09L10.57 6.09Q10.89 6.09 11.14 6.14L11.14 6.14L11.14 6.14Q11.38 6.19 11.55 6.31L11.55 6.31L11.55 6.31Q11.72 6.44 11.80 6.66L11.80 6.66L11.80 6.66Q11.89 6.89 11.89 7.25L11.89 7.25L11.89 9.48L14.80 6.13L14.80 6.13Q15.75 6.13 16.16 6.49L16.16 6.49L16.16 6.49Q16.58 6.85 16.58 7.34L16.58 7.34L16.58 7.34Q16.58 7.70 16.39 8.02L16.39 8.02L16.39 8.02Q16.21 8.34 15.81 8.75L15.81 8.75L14.06 10.50L14.06 10.50Q14.41 10.89 14.79 11.31L14.79 11.31L14.79 11.31Q15.18 11.73 15.55 12.13L15.55 12.13L15.55 12.13Q15.92 12.53 16.26 12.89L16.26 12.89L16.26 12.89Q16.60 13.26 16.86 13.52L16.86 13.52L16.86 13.52Q16.86 13.83 16.74 14.07L16.74 14.07L16.74 14.07Q16.63 14.31 16.44 14.48L16.44 14.48L16.44 14.48Q16.25 14.64 16.02 14.73L16.02 14.73L16.02 14.73Q15.78 14.81 15.51 14.81L15.51 14.81L15.51 14.81Q14.94 14.81 14.57 14.53L14.57 14.53L14.57 14.53Q14.21 14.24 13.87 13.85L13.87 13.85Z"></path></g><!----><!----></svg>